<svg xmlns="http://www.w3.org/2000/svg" width="272" height="31" viewBox="0 0 272 31"><defs><filter id="r5mta" width="200%" height="200%" x="-50%" y="-50%"><feGaussianBlur in="SourceGraphic" result="FeGaussianBlur1277Out" stdDeviation="2.5 2.5"/></filter><mask id="r5mtb"><path fill="#fff" d="M11 1h250c5.523 0 10 4.477 10 10v9c0 5.523-4.477 10-10 10H11C5.477 30 1 25.523 1 20v-9C1 5.477 5.477 1 11 1z"/></mask><clipPath id="r5mtc"><path fill="#fff" d="M0 31V0h272v31zm1-20v9c0 5.523 4.477 10 10 10h250c5.523 0 10-4.477 10-10v-9c0-5.523-4.477-10-10-10H11C5.477 1 1 5.477 1 11z"/></clipPath></defs><g><g><path fill="#fff" d="M11 1h250c5.523 0 10 4.477 10 10v9c0 5.523-4.477 10-10 10H11C5.477 30 1 25.523 1 20v-9C1 5.477 5.477 1 11 1z"/><path fill-opacity=".11" d="M-6.5 39.3V-8.3h285v47.6zm10-24v9c0 5.523 4.477 10 10 10h250c5.523 0 10-4.477 10-10v-9c0-5.523-4.477-10-10-10h-250c-5.523 0-10 4.477-10 10z" filter="url(#r5mta)" mask="url(&quot;#r5mtb&quot;)"/><path fill="none" stroke="#000" stroke-linecap="round" stroke-linejoin="round" stroke-miterlimit="50" stroke-opacity=".15" stroke-width="2" d="M11 1h250c5.523 0 10 4.477 10 10v9c0 5.523-4.477 10-10 10H11C5.477 30 1 25.523 1 20v-9C1 5.477 5.477 1 11 1z" clip-path="url(&quot;#r5mtc&quot;)"/></g></g></svg>